# xmcd
#
# Track frame offsets:
#	150
#	21840
#	43888
#	64581
#	82605
#	103045
#	127188
#	143848
#	161518
#	178224
#
# Disc length: 2521 seconds
#
# Revision: 0
# Processed by: cddbd v1.5.2PL0 Copyright (c) Steve Scherf et al.
# Submitted via: EasyCDDAExtractor 12.0.1.1
#
DISCID=8409d70a
DTITLE=Pepe Ahlqvist - N‰ill‰ mailla
DYEAR=2010
DGENRE=
TTITLE0=Heittelin leip‰‰
TTITLE1=Aina ei voi saada mit‰ haluaa
TTITLE2=Mun poikani mun
TTITLE3=N‰ill‰ mailla
TTITLE4=Jono
TTITLE5=Soitan sen pois
TTITLE6=Rautakitara
TTITLE7=Tohveliblues
TTITLE8=Kaunasauna
TTITLE9=Asikkala
EXTD=
EXTT0=
EXTT1=
EXTT2=
EXTT3=
EXTT4=
EXTT5=
EXTT6=
EXTT7=
EXTT8=
EXTT9=
PLAYORDER=
